<?xml version="1.0" standalone="no"?><!DOCTYPE svg PUBLIC "-//W3C//DTD SVG 1.1//EN" "http://www.w3.org/Graphics/SVG/1.1/DTD/svg11.dtd"><svg t="1537188397119" class="icon" style="" viewBox="0 0 1024 1024" version="1.1" xmlns="http://www.w3.org/2000/svg" p-id="3210" xmlns:xlink="http://www.w3.org/1999/xlink" width="64" height="64"><defs><style type="text/css"></style></defs><path d="M512.339968 958.818304c-247.595008 0-448.272384-200.758272-448.272384-448.24576 0-247.568384 200.677376-448.272384 448.272384-448.272384 247.54176 0 448.244736 200.704 448.244736 448.272384C960.584704 758.060032 759.881728 958.818304 512.339968 958.818304L512.339968 958.818304zM512.339968 118.35904c-216.626176 0-392.213504 175.587328-392.213504 392.213504 0 216.599552 175.587328 392.214528 392.213504 392.214528 216.598528 0 392.214528-175.614976 392.214528-392.214528C904.554496 293.946368 728.938496 118.35904 512.339968 118.35904L512.339968 118.35904zM694.985728 537.903104 329.693184 537.903104c-15.074304 0-27.33056-12.255232-27.33056-27.33056 0-15.156224 12.256256-27.413504 27.33056-27.413504l365.292544 0c15.102976 0 27.359232 12.256256 27.359232 27.413504C722.34496 525.647872 710.088704 537.903104 694.985728 537.903104L694.985728 537.903104z" p-id="3211" fill="#d81e06"></path></svg>